{"title":"Monty Python And The Holy Grail[1974]BRrip[Ac3-5.1]-=[CaLvIn]=-","uid":7111870,"size":747234667,"categoryP":"video","categoryS":"movies","magnet":"?xt=urn:btih:3be773c3f365c563d54f7e48c552ed411aab7226&amp;dn=Monty+Python+And+The+Holy+Grail%5B1974%5DBRrip%5BAc3-5.1%5D-%3D%5BCaLvIn%5D%3D-&amp;tr=udp%3A%2F%2Ftracker.openbittorrent.com%3A80&amp;tr=udp%3A%2F%2Fopen.demonii.com%3A1337&amp;tr=udp%3A%2F%2Ftracker.coppersurfer.tk%3A6969&amp;tr=udp%3A%2F%2Fexodus.desync.com%3A6969","seeders":0,"leechers":1,"uploader":"rhythmtheguru","files":15,"time":1332093218,"description":"\nVideo\nID                               : 0\nFormat                           : MPEG-4 Visual\nFormat profile                   : Advanced Simple@L5\nFormat settings, BVOP            : 2\nFormat settings, QPel            : No\nFormat settings, GMC             : No warppoints\nFormat settings, Matrix          : Default (H.263)\nCodec ID                         : XVID\nCodec ID/Hint                    : XviD\nDuration                         : 1h 32mn\nBit rate                         : 856 Kbps\nWidth                            : 720 pixels\nHeight                           : 432 pixels\nDisplay aspect ratio             : 16:9\nFrame rate                       : 23.976 fps\nColor space                      : YUV\nChroma subsampling               : 4:2:0\nBit depth                        : 8 bits\nScan type                        : Progressive\nCompression mode                 : Lossy\nBits/(Pixel*Frame)               : 0.115\nStream size                      : 564 MiB (81%)\nWriting library                  : XviD 1.2.1 (UTC 2008-12-04)\n\nAudio\nID                               : 1\nFormat                           : AC-3\nFormat/Info                      : Audio Coding 3\nMode extension                   : CM (complete main)\nCodec ID                         : 2000\nDuration                         : 1h 32mn\nBit rate mode                    : Constant\nBit rate                         : 192 Kbps\nChannel(s)                       : 6 channels\nChannel positions                : Front: L C R, Side: L R, LFE\nSampling rate                    : 48.0 KHz\nBit depth                        : 16 bits\nCompression mode                 : Lossy\nStream size                      : 127 MiB (18%)\nAlignment                        : Split accross interleaves\nInterleave, duration             : 42 ms (1.00 video frame)\nInterleave, preload duration     : 500 ms\n\n\n &lt;a href=&quot;\nhttp://img832.imageshack.us/img832/3599/30116861.png&quot; rel=&quot;nofollow&quot; target=&quot;_NEW&quot;&gt;\nhttp://img832.imageshack.us/img832/3599/30116861.png&lt;/a&gt; &lt;a href=&quot;\nhttp://img856.imageshack.us/img856/6916/52690566.png&quot; rel=&quot;nofollow&quot; target=&quot;_NEW&quot;&gt;\nhttp://img856.imageshack.us/img856/6916/52690566.png&lt;/a&gt; &lt;a href=&quot;\nhttp://img818.imageshack.us/img818/387/25093405.png&quot; rel=&quot;nofollow&quot; target=&quot;_NEW&quot;&gt;\nhttp://img818.imageshack.us/img818/387/25093405.png&lt;/a&gt; &lt;a href=&quot;\nhttp://img39.imageshack.us/img39/6383/68003855.png&quot; rel=&quot;nofollow&quot; target=&quot;_NEW&quot;&gt;\nhttp://img39.imageshack.us/img39/6383/68003855.png&lt;/a&gt; &lt;a href=&quot;\nhttp://img827.imageshack.us/img827/496/90657421.png&quot; rel=&quot;nofollow&quot; target=&quot;_NEW&quot;&gt;\nhttp://img827.imageshack.us/img827/496/90657421.png&lt;/a&gt; &lt;a href=&quot;\nhttp://img853.imageshack.us/img853/1599/48340967.png&quot; rel=&quot;nofollow&quot; target=&quot;_NEW&quot;&gt;\nhttp://img853.imageshack.us/img853/1599/48340967.png&lt;/a&gt; &lt;a href=&quot;\nhttp://img696.imageshack.us/img696/3685/26617438.png&quot; rel=&quot;nofollow&quot; target=&quot;_NEW&quot;&gt;\nhttp://img696.imageshack.us/img696/3685/26617438.png&lt;/a&gt; &lt;a href=&quot;\nhttp://img213.imageshack.us/img213/1734/18425958.png&quot; rel=&quot;nofollow&quot; target=&quot;_NEW&quot;&gt;\nhttp://img213.imageshack.us/img213/1734/18425958.png&lt;/a&gt; &lt;a href=&quot;\nhttp://img851.imageshack.us/img851/1482/67575432.png&quot; rel=&quot;nofollow&quot; target=&quot;_NEW&quot;&gt;\nhttp://img851.imageshack.us/img851/1482/67575432.png&lt;/a&gt; &lt;a href=&quot;\nhttp://img838.imageshack.us/img838/237/40731323.png&quot; rel=&quot;nofollow&quot; target=&quot;_NEW&quot;&gt;\nhttp://img838.imageshack.us/img838/237/40731323.png&lt;/a&gt;\n","torrent":{"xt":"urn:btih:3be773c3f365c563d54f7e48c552ed411aab7226","amp;dn":"Monty+Python+And+The+Holy+Grail%5B1974%5DBRrip%5BAc3-5.1%5D-%3D%5BCaLvIn%5D%3D-","amp;tr":["udp%3A%2F%2Ftracker.openbittorrent.com%3A80","udp%3A%2F%2Fopen.demonii.com%3A1337","udp%3A%2F%2Ftracker.coppersurfer.tk%3A6969","udp%3A%2F%2Fexodus.desync.com%3A6969"],"infoHash":"3be773c3f365c563d54f7e48c552ed411aab7226","infoHashBuffer":{"type":"Buffer","data":[59,231,115,195,243,101,197,99,213,79,126,72,197,82,237,65,26,171,114,38]},"announce":[],"urlList":[]}}